# xmcd
# 
# Track frame offsets:
#     150
#     14802
#     29282
#     40512
#     50048
#     64402
#     77301
#     92884
#     104507
#     122310
#     136747
#     152006
#     162926
#     176961
#     194211
#     207411
#     219891
#     233744
#     246497
#     259821
#     271164
#     285669
#     298419
#     308536
#     320761
#     334426
# 
# Disc length: 4639
# 
# Revision: 1
# Processed by: cddbd v1.5.2PL0 Copyright (c) Steve Scherf et al.
# Submitted via: fre:ac v1.0.17
# 
DISCID=8d121d1a
DTITLE=Various Artist - Roots Of Classic Rock: The Blues That Inspired Rock 'N' Roll
DYEAR=2009
DGENRE=Blues
TTITLE0=Big Bill Broonzy - Baby Please Don't Go
TTITLE1=Memphis Minnie And Kansas Joe - When The Levee Breaks
TTITLE2=Robert Johnson - Walking Blues
TTITLE3=Leadbelly - Midnight Special
TTITLE4=Blind Willie Johnson - Nobody's Fault But Mine
TTITLE5=Blind Lemon Jefferson - Matchbox Blues
TTITLE6=Mississippi Fred McDowell - Good Morning Little Schoolgirl
TTITLE7=Blind Willie McTell - Statesboro Blues
TTITLE8=Sonny Terry And Brownie McGhee - Key To The Highway
TTITLE9=Sleepy John Estes - Drop Down Mama
TTITLE10=Blind Willie Johnson - Motherless Children
TTITLE11=Robert Johnson - Love In Vain
TTITLE12=Leadbelly - Gallis Pole
TTITLE13=Pete Seeger - Boll Weevil
TTITLE14=Blind Joe Reynolds - Outside Woman Blues
TTITLE15=Woody Guthrie - Stackerlee
TTITLE16=Mississippi Sheiks - Sitting On Top Of The World
TTITLE17=Mississippi Fred McDowell - Got To Move
TTITLE18=Sleepy John Estes - The Girl I Love She Got Long Curly Hair
TTITLE19=Robert Johnson - Cross Road Blues
TTITLE20=Blind Willie Johnson - Jesus Make Up My Dying Bed
TTITLE21=Skip James - I'm So Glad
TTITLE22=Leadbelly - House Of The Rising Sun
TTITLE23=Blind Boy Fuller - I Want Some Of Your Pie
TTITLE24=Big Bill Broonzy - See See Rider
TTITLE25=Big Joe Williams - Shake 'Em On Down
EXTD=
EXTT0=
EXTT1=
EXTT2=
EXTT3=
EXTT4=
EXTT5=
EXTT6=
EXTT7=
EXTT8=
EXTT9=
EXTT10=
EXTT11=
EXTT12=
EXTT13=
EXTT14=
EXTT15=
EXTT16=
EXTT17=
EXTT18=
EXTT19=
EXTT20=
EXTT21=
EXTT22=
EXTT23=
EXTT24=
EXTT25=
PLAYORDER=
